<mxfile host="app.diagrams.net" agent="Mozilla/5.0 (Windows NT 10.0; Win64; x64) AppleWebKit/537.36 (KHTML, like Gecko) Chrome/128.0.0.0 Safari/537.36 Edg/128.0.0.0" version="24.7.7">
  <diagram name="Page-1" id="0H-VbE9G5cqUQDnKlk-r">
    <mxGraphModel dx="872" dy="471" grid="1" gridSize="10" guides="1" tooltips="1" connect="1" arrows="1" fold="1" page="1" pageScale="1" pageWidth="850" pageHeight="1100" math="0" shadow="0">
      <root>
        <mxCell id="0" />
        <mxCell id="1" parent="0" />
        <mxCell id="pCR5Xvbqn1CGzURARw2B-3" value="" style="edgeStyle=orthogonalEdgeStyle;rounded=0;orthogonalLoop=1;jettySize=auto;html=1;" edge="1" parent="1" source="pCR5Xvbqn1CGzURARw2B-1" target="pCR5Xvbqn1CGzURARw2B-2">
          <mxGeometry relative="1" as="geometry" />
        </mxCell>
        <mxCell id="pCR5Xvbqn1CGzURARw2B-1" value="Initializing and Extracting Keypoints" style="rounded=0;whiteSpace=wrap;html=1;" vertex="1" parent="1">
          <mxGeometry x="80" y="60" width="120" height="60" as="geometry" />
        </mxCell>
        <mxCell id="pCR5Xvbqn1CGzURARw2B-5" value="" style="edgeStyle=orthogonalEdgeStyle;rounded=0;orthogonalLoop=1;jettySize=auto;html=1;" edge="1" parent="1" source="pCR5Xvbqn1CGzURARw2B-2" target="pCR5Xvbqn1CGzURARw2B-4">
          <mxGeometry relative="1" as="geometry" />
        </mxCell>
        <mxCell id="pCR5Xvbqn1CGzURARw2B-2" value="Creating Dataset based on the pose estimation model" style="rounded=0;whiteSpace=wrap;html=1;" vertex="1" parent="1">
          <mxGeometry x="240" y="60" width="120" height="60" as="geometry" />
        </mxCell>
        <mxCell id="pCR5Xvbqn1CGzURARw2B-7" value="" style="edgeStyle=orthogonalEdgeStyle;rounded=0;orthogonalLoop=1;jettySize=auto;html=1;" edge="1" parent="1" source="pCR5Xvbqn1CGzURARw2B-4" target="pCR5Xvbqn1CGzURARw2B-6">
          <mxGeometry relative="1" as="geometry" />
        </mxCell>
        <mxCell id="pCR5Xvbqn1CGzURARw2B-11" value="" style="edgeStyle=orthogonalEdgeStyle;rounded=0;orthogonalLoop=1;jettySize=auto;html=1;" edge="1" parent="1" source="pCR5Xvbqn1CGzURARw2B-4" target="pCR5Xvbqn1CGzURARw2B-10">
          <mxGeometry relative="1" as="geometry" />
        </mxCell>
        <mxCell id="pCR5Xvbqn1CGzURARw2B-4" value="Preprocessing Data and Training the model" style="rounded=0;whiteSpace=wrap;html=1;" vertex="1" parent="1">
          <mxGeometry x="400" y="60" width="120" height="60" as="geometry" />
        </mxCell>
        <mxCell id="pCR5Xvbqn1CGzURARw2B-9" value="" style="edgeStyle=orthogonalEdgeStyle;rounded=0;orthogonalLoop=1;jettySize=auto;html=1;" edge="1" parent="1" source="pCR5Xvbqn1CGzURARw2B-6" target="pCR5Xvbqn1CGzURARw2B-8">
          <mxGeometry relative="1" as="geometry" />
        </mxCell>
        <mxCell id="pCR5Xvbqn1CGzURARw2B-6" value="Integrating the model to Software" style="rounded=0;whiteSpace=wrap;html=1;" vertex="1" parent="1">
          <mxGeometry x="400" y="160" width="120" height="60" as="geometry" />
        </mxCell>
        <mxCell id="pCR5Xvbqn1CGzURARw2B-17" value="" style="edgeStyle=orthogonalEdgeStyle;rounded=0;orthogonalLoop=1;jettySize=auto;html=1;" edge="1" parent="1" source="pCR5Xvbqn1CGzURARw2B-8" target="pCR5Xvbqn1CGzURARw2B-16">
          <mxGeometry relative="1" as="geometry" />
        </mxCell>
        <mxCell id="pCR5Xvbqn1CGzURARw2B-8" value="Check for the performance" style="rounded=0;whiteSpace=wrap;html=1;" vertex="1" parent="1">
          <mxGeometry x="240" y="160" width="120" height="60" as="geometry" />
        </mxCell>
        <mxCell id="pCR5Xvbqn1CGzURARw2B-13" value="" style="edgeStyle=orthogonalEdgeStyle;rounded=0;orthogonalLoop=1;jettySize=auto;html=1;" edge="1" parent="1" source="pCR5Xvbqn1CGzURARw2B-10" target="pCR5Xvbqn1CGzURARw2B-12">
          <mxGeometry relative="1" as="geometry" />
        </mxCell>
        <mxCell id="pCR5Xvbqn1CGzURARw2B-10" value="Homography Transformation" style="rounded=0;whiteSpace=wrap;html=1;" vertex="1" parent="1">
          <mxGeometry x="560" y="60" width="120" height="60" as="geometry" />
        </mxCell>
        <mxCell id="pCR5Xvbqn1CGzURARw2B-15" value="" style="edgeStyle=orthogonalEdgeStyle;rounded=0;orthogonalLoop=1;jettySize=auto;html=1;entryX=1;entryY=0.5;entryDx=0;entryDy=0;" edge="1" parent="1" source="pCR5Xvbqn1CGzURARw2B-12" target="pCR5Xvbqn1CGzURARw2B-6">
          <mxGeometry relative="1" as="geometry">
            <mxPoint x="720" y="220" as="targetPoint" />
            <Array as="points">
              <mxPoint x="780" y="190" />
            </Array>
          </mxGeometry>
        </mxCell>
        <mxCell id="pCR5Xvbqn1CGzURARw2B-12" value="Heatmap of Occurences" style="rounded=0;whiteSpace=wrap;html=1;" vertex="1" parent="1">
          <mxGeometry x="720" y="60" width="120" height="60" as="geometry" />
        </mxCell>
        <mxCell id="pCR5Xvbqn1CGzURARw2B-19" value="" style="edgeStyle=orthogonalEdgeStyle;rounded=0;orthogonalLoop=1;jettySize=auto;html=1;" edge="1" parent="1" source="pCR5Xvbqn1CGzURARw2B-16" target="pCR5Xvbqn1CGzURARw2B-18">
          <mxGeometry relative="1" as="geometry" />
        </mxCell>
        <mxCell id="pCR5Xvbqn1CGzURARw2B-16" value="Add User Friendly Features" style="rounded=0;whiteSpace=wrap;html=1;" vertex="1" parent="1">
          <mxGeometry x="80" y="160" width="120" height="60" as="geometry" />
        </mxCell>
        <mxCell id="pCR5Xvbqn1CGzURARw2B-18" value="System &amp;amp; Model Evaluation" style="rounded=0;whiteSpace=wrap;html=1;" vertex="1" parent="1">
          <mxGeometry x="80" y="260" width="120" height="60" as="geometry" />
        </mxCell>
      </root>
    </mxGraphModel>
  </diagram>
</mxfile>
